<svg xmlns="http://www.w3.org/2000/svg" viewBox="0 0 1200 480" role="img" aria-label="Energia e vitalità" preserveAspectRatio="xMidYMid slice">
  <defs>
    <linearGradient id="base" x1="0" y1="0" x2="1" y2="1">
      <stop offset="0" stop-color="#F9C206"/>
      <stop offset="1" stop-color="#F9C206" stop-opacity="0.82"/>
    </linearGradient>
    <radialGradient id="glow" cx="0.22" cy="0.18" r="0.9">
      <stop offset="0" stop-color="#ffffff" stop-opacity="0.30"/>
      <stop offset="0.55" stop-color="#ffffff" stop-opacity="0"/>
    </radialGradient>
    <radialGradient id="gold" cx="0.35" cy="0.3" r="0.85">
      <stop offset="0" stop-color="#FFE28A"/>
      <stop offset="0.45" stop-color="#F9C206"/>
      <stop offset="1" stop-color="#F5920B"/>
    </radialGradient>
    <linearGradient id="scrim" x1="0" y1="1" x2="0" y2="0">
      <stop offset="0" stop-color="#000000" stop-opacity="0.34"/>
      <stop offset="0.62" stop-color="#000000" stop-opacity="0"/>
    </linearGradient>
    <clipPath id="frame"><rect width="1200" height="480"/></clipPath>
  </defs>
  <g clip-path="url(#frame)">
    <rect width="1200" height="480" fill="url(#base)"/>
    <rect width="1200" height="480" fill="url(#glow)"/>
    <g fill="none" stroke="#ffffff" stroke-opacity="0.22" stroke-width="3">
      <ellipse cx="950" cy="240" rx="60" ry="190" transform="rotate(8 950 240)"/>
      <ellipse cx="950" cy="240" rx="190" ry="66" transform="rotate(32 950 240)"/>
      <ellipse cx="950" cy="240" rx="190" ry="66" transform="rotate(-38 950 240)"/>
    </g>
    <g fill="url(#gold)">
      <circle cx="968" cy="52" r="15"/>
      <circle cx="1102" cy="330" r="17"/>
      <circle cx="800" cy="160" r="12"/>
      <circle cx="862" cy="380" r="13"/>
      <circle cx="1120" cy="130" r="10"/>
      <circle cx="150" cy="392" r="60" opacity="0.55"/>
      <circle cx="372" cy="86" r="34" opacity="0.6"/>
      <circle cx="612" cy="360" r="20" opacity="0.7"/>
    </g>
    <rect width="1200" height="480" fill="url(#scrim)"/>
    <text x="64" y="150" font-family="'Avenir Next','Futura',sans-serif" font-size="24" font-weight="700" letter-spacing="7" fill="#ffffff" fill-opacity="0.75">NAGOMI LAB</text>
    <text x="60" y="312" font-family="'Avenir Next','Futura',sans-serif" font-size="92" font-weight="700" fill="#ffffff" fill-opacity="0.16">Energia e vitalità</text>
  </g>
</svg>
